# xmcd
#
# Track frame offsets:
#	150
#	18291
#	40483
#	60113
#	81087
#	84142
#	103891
#	127147
#	133086
#	149845
#	167241
#	183732
#	186295
#	203666
#	222535
#
# Disc length: 3254 seconds
#
# Revision: 83261397
# Processed by: cddbd v1.5.1PL0 Copyright (c) Steve Scherf et al.
# Submitted via: EasyCDDAExtractor 8.0.2.1
#
DISCID=e10cb40f
DTITLE=Various Artist - Ruff Ryders - Ryde Or Die Vol. 1
DYEAR=1999
DGENRE=Rap
TTITLE0=The Lox - Ryde Or Die (Featuring Drag-On, Eve and DMX)
TTITLE1=Drag-On - Down Bottom (Featuring Juvenile)
TTITLE2=Eve - What Ya Want (Featuring Nokio)
TTITLE3=Jay-Z - Jigga My Nigga
TTITLE4=Ruff Ryders - Takin' Money (skit)
TTITLE5=The LOX - Dope Money
TTITLE6=Parle - I'm A Ruff Ryder
TTITLE7=DMX - Bugout
TTITLE8=Jadakiss - Kiss Of Death
TTITLE9=Drag-On  - The Hood (Featuring Beanie Sigel, Mysonne, Infa-Red, NuChil
TTITLE9=d and Jadakiss)
TTITLE10=Cross - Platinum Plus (Featuring Jermaine Dupri and Mase)
TTITLE11=Ruff Ryders - Buff Ryders (skit)
TTITLE12=Eve - Do That Shit
TTITLE13=Sheek and Big Pun - Pina Colada
TTITLE14=DMX - Some X Shit
EXTD=YEAR: 1999 ID3G: 15
EXTT0=
EXTT1=
EXTT2=
EXTT3=
EXTT4=
EXTT5=
EXTT6=
EXTT7=
EXTT8=
EXTT9=
EXTT10=
EXTT11=
EXTT12=
EXTT13=
EXTT14=
PLAYORDER=
